<svg width="32" height="32" viewBox="0 0 32 32" fill="none" xmlns="http://www.w3.org/2000/svg">
  <!-- Background circle with gradient -->
  <defs>
    <linearGradient id="brainGradient" x1="0%" y1="0%" x2="100%" y2="100%">
      <stop offset="0%" style="stop-color:#3B82F6;stop-opacity:1" />
      <stop offset="100%" style="stop-color:#9333EA;stop-opacity:1" />
    </linearGradient>
  </defs>
  
  <!-- Background circle -->
  <circle cx="16" cy="16" r="16" fill="url(#brainGradient)"/>
  
  <!-- Brain icon - simplified for favicon visibility -->
  <path d="M10 8C9 8 8 9 8 10C8 11 9 12 10 12C11 12 12 11 12 10C12 9 11 8 10 8Z" fill="white"/>
  <path d="M22 8C21 8 20 9 20 10C20 11 21 12 22 12C23 12 24 11 24 10C24 9 23 8 22 8Z" fill="white"/>
  <path d="M16 10C15 10 14 11 14 12C14 13 15 14 16 14C17 14 18 13 18 12C18 11 17 10 16 10Z" fill="white"/>
  <path d="M10 20C9 20 8 21 8 22C8 23 9 24 10 24C11 24 12 23 12 22C12 21 11 20 10 20Z" fill="white"/>
  <path d="M22 20C21 20 20 21 20 22C20 23 21 24 22 24C23 24 24 23 24 22C24 21 23 20 22 20Z" fill="white"/>
  <path d="M16 22C15 22 14 23 14 24C14 25 15 26 16 26C17 26 18 25 18 24C18 23 17 22 16 22Z" fill="white"/>
  
  <!-- Connecting lines for brain structure -->
  <path d="M12 10L14 12" stroke="white" stroke-width="2" stroke-linecap="round"/>
  <path d="M18 12L20 10" stroke="white" stroke-width="2" stroke-linecap="round"/>
  <path d="M12 22L14 24" stroke="white" stroke-width="2" stroke-linecap="round"/>
  <path d="M18 24L20 22" stroke="white" stroke-width="2" stroke-linecap="round"/>
</svg> 
